<svg xmlns="http://www.w3.org/2000/svg" viewBox="0 0 512 512"><defs><style>.cls-1{fill:#323232;}.cls-2{fill:#fff;}</style></defs><title>dribbble_grey</title><g id="Layer_2" data-name="Layer 2"><g id="Layer_1-2" data-name="Layer 1"><g id="dribbble"><circle class="cls-1" cx="256" cy="256" r="256"/><path class="cls-2" d="M86,262.62v-13.3c.22-1.29.49-2.57.66-3.87,1-8,1.5-16.12,3.14-24,7.41-35.39,24.14-65.81,50.94-90.08,42.81-38.78,93.13-52.72,149.72-41.77,38,7.35,69.8,26.4,94.7,56.06,35.37,42.12,47.71,90.71,37.22,144.57-7.49,38.47-26.8,70.64-57,95.66-42,34.83-90.35,47-143.77,36.39-41.33-8.2-74.85-29.89-100.57-63.3a164.5,164.5,0,0,1-33-79C87.22,274.24,86.67,268.42,86,262.62Zm197.1,23.77c-47.37,12.5-88.63,33.23-117.25,74.06a10.76,10.76,0,0,0,.92,1.1,136.47,136.47,0,0,0,67.54,31,138.52,138.52,0,0,0,70.79-7.15c2.06-.76,2.89-1.4,2.48-3.94a446.18,446.18,0,0,0-13.19-58.83C290.79,310.67,287,298.8,283.1,286.39Zm-35.5-77.68c-.31-.83-.39-1.15-.55-1.44a613.34,613.34,0,0,0-48-74.83c-1.4-1.87-2.5-1.45-4.13-.61-31.2,15.93-53.74,39.93-67.1,72.37-2.49,6.05-4.24,12.42-6.46,19.06C164.71,224.87,206.53,221.18,247.6,208.71Zm14.63,28.44c-47.1,15.22-95.27,19.57-144.46,17.72.19,30.27,8.6,57.34,26.16,82,32.52-42.69,76.77-65.91,127.19-79.91Zm15.34-39.88c25.41-11.73,47.18-27.52,64.56-49.52a137,137,0,0,0-112.69-27.43A656.49,656.49,0,0,1,277.57,197.27Zm86.85-26.84c-20,24.14-44.59,41.75-72.76,55.08,3.5,7.91,6.83,15.58,10.34,23.17.28.6,1.81,1,2.68.88,8.43-1.07,16.83-2.49,25.28-3.37A428.74,428.74,0,0,1,390.24,244c1.07,0,2.14,0,3.16,0C395.21,226.65,379.28,186.22,364.42,170.43ZM314,280.11a554.7,554.7,0,0,1,23.34,87.95C368.42,344.2,387,314,393,275.53A433.1,433.1,0,0,0,314,280.11Z"/></g></g></g></svg>