<svg xmlns="http://www.w3.org/2000/svg" viewBox="0 0 511.1 510.96"><defs><style>.cls-1{fill:#323232;}.cls-2{fill:#fff;}</style></defs><title>ello_grey</title><g id="Layer_2" data-name="Layer 2"><g id="Layer_1-2" data-name="Layer 1"><g id="ello"><path class="cls-1" d="M511.1,236v39c-.3,1.07-.7,2.13-.89,3.22-2.58,14.57-4.05,29.42-7.85,43.66-31.92,119.66-144,198.28-268.28,188.22-61.26-5-114.47-29-157.68-72.54-64.5-65-88-143.64-71.12-233.52C24.21,103.15,109,21,210.13,4c8.63-1.45,17.31-2.64,26-4h39a17.07,17.07,0,0,0,2.71.86C287.35,2.25,297,3.21,306.42,5,407.31,24.1,490.19,108.81,507.17,210.05,508.62,218.68,509.8,227.35,511.1,236ZM255.65,409.72c10.06-1.25,20.32-1.62,30.15-3.89,60.61-14,99.9-51,117.81-110.54,2.17-7.23-.13-13.65-5.55-17.27-9.13-6.09-19.81-1.39-23,10.13-23.38,83.92-121.95,118.5-192.42,67.39-23.34-16.93-38.7-39.6-46.41-67.37-1.7-6.1-4.75-10.63-11.11-12.2-11.86-2.93-20.71,7.15-17.43,19.75C124.94,361.91,186.4,409,255.65,409.72Z"/><path class="cls-2" d="M255.65,409.72c-69.25-.73-130.71-47.81-148-114-3.28-12.6,5.57-22.67,17.43-19.75,6.36,1.57,9.42,6.1,11.11,12.2,7.71,27.77,23.07,50.44,46.41,67.37,70.47,51.11,169,16.53,192.42-67.39,3.21-11.52,13.89-16.22,23-10.13,5.42,3.61,7.72,10,5.55,17.27-17.91,59.58-57.2,96.58-117.81,110.54C276,408.09,265.71,408.47,255.65,409.72Z"/></g></g></g></svg>