<svg xmlns="http://www.w3.org/2000/svg" viewBox="0 0 512 512"><defs><style>.cls-1{fill:#323232;}.cls-2{fill:#fff;}</style></defs><title>email_grey</title><g id="Layer_2" data-name="Layer 2"><g id="Layer_1-2" data-name="Layer 1"><g id="email"><circle class="cls-1" cx="256" cy="256" r="256"/><path class="cls-2" d="M426,160.4V351.64a3.92,3.92,0,0,0-.57,1.13A61.22,61.22,0,0,1,414,381.33a51.72,51.72,0,0,1-43.57,21.94q-114.51.19-229,0c-7.71,0-15.16-1.15-22.35-4.72a56.81,56.81,0,0,1-18.36-13.76C90.47,372.86,86,358.77,86,343q.11-87,.06-173.92a79.52,79.52,0,0,1,.71-10.91c2.29-16.4,10.1-29.85,23.37-39.55a49.14,49.14,0,0,1,29.58-10c1.22,0,2.43,0,3.65,0q112.52,0,225,0c13.85,0,26.05,3.77,36.77,12.78a55.38,55.38,0,0,1,17.42,26C424,151.65,424.88,156.06,426,160.4Zm-309.84-2.06c-.37,4.41-.92,7.87-.92,11.32q-.08,86.32,0,172.63a42.83,42.83,0,0,0,.15,5c1.12,9.56,5.23,17.46,14.17,21.62a31.4,31.4,0,0,0,12.83,2.52q113.71.22,227.41.1c1,0,2,0,3-.06,5.65-.41,11-1.88,15.13-5.91,6.53-6.35,9-14.24,9-23.34q-.19-86.32-.07-172.63a48.1,48.1,0,0,0-.23-5.63c-.19-1.57-.68-3.11-1.19-5.29-2.76,2.51-5,4.62-7.29,6.6q-10,8.54-20.15,17c-8.1,6.77-16.25,13.47-24.34,20.25-5.8,4.86-11.5,9.85-17.29,14.71q-16.66,14-33.38,27.92c-5.5,4.58-11.13,9-16.62,13.59-4.11,3.44-8.07,7.06-12.1,10.59-3.78,3.32-12.69,3.26-16.5,0q-16.48-14.14-33-28.2c-6.86-5.83-13.78-11.6-20.68-17.39q-16-13.45-32.08-26.87c-5.84-4.86-11.79-9.59-17.67-14.41q-5.73-4.71-11.37-9.53C127.59,168.32,122.33,163.7,116.16,158.34ZM256,236.46c5-4.33,9.7-8.54,14.54-12.63q15.72-13.3,31.53-26.5c6.89-5.79,13.76-11.61,20.68-17.37q13.06-10.87,26.18-21.65c4.23-3.5,8.5-7,12.68-10.54,2.52-2.15,4.89-4.46,7.41-6.77H142.9c3,2.67,5.63,5.13,8.38,7.47q9.77,8.33,19.62,16.57Q187,178.6,203.23,192.11c5.76,4.79,11.61,9.46,17.4,14.21q5.6,4.6,11.12,9.3C239.74,222.46,247.71,229.33,256,236.46Z"/></g></g></g></svg>