<svg xmlns="http://www.w3.org/2000/svg" viewBox="0 0 512 512"><defs><style>.cls-1{fill:#323232;}.cls-2{fill:#fff;}</style></defs><title>instagram_grey</title><g id="Layer_2" data-name="Layer 2"><g id="Layer_1-2" data-name="Layer 1"><g id="instagram"><circle class="cls-1" cx="256" cy="256" r="256"/><path class="cls-2" d="M173,86H339c3.47.55,7,.92,10.42,1.69,38.52,8.66,63.21,32,73.78,70,1.38,5,1.88,10.16,2.78,15.24V338.86c-.21,1.18-.34,2.39-.64,3.55-2.3,8.84-3.39,18.25-7.16,26.41-16.93,36.66-46,56.24-86.46,56.81-50.45.71-100.92.21-151.38.15-19.56,0-37.67-5.28-53.62-16.64-27-19.26-40.57-45.77-40.66-78.93q-.19-74.33,0-148.66a90.5,90.5,0,0,1,1.72-19.11c8.48-38.49,31.93-63.07,69.9-73.64C162.72,87.4,167.93,86.91,173,86ZM395.86,256.16q0-37,0-74c0-7.77-.8-15.44-3.45-22.82-9.62-26.89-32.8-43.16-62-43.2-49.57-.08-99.13-.16-148.7.13a71.56,71.56,0,0,0-22.12,3.45c-27.07,9.13-43.3,32.57-43.36,61.76-.1,49.65-.16,99.31.12,149a70.53,70.53,0,0,0,3.42,21.78c9.08,26.93,32.38,43.29,61.41,43.39q74.85.26,149.69,0c22.15,0,40-8.94,53.18-26.88,8.46-11.56,11.86-24.74,11.84-38.95Q395.81,293,395.86,256.16Z"/><path class="cls-2" d="M343.63,255.93c0,48.13-39.68,87.68-87.72,87.54-48.22-.15-87.74-39.78-87.49-87.76.25-48.14,39.5-87.3,87.56-87.37S343.67,207.85,343.63,255.93Zm-30.22.1c.19-31.52-25.49-57.3-57.25-57.49-31.53-.19-57.33,25.48-57.52,57.22-.19,31.52,25.48,57.3,57.25,57.49C287.42,313.44,313.22,287.77,313.41,256Z"/><path class="cls-2" d="M347.45,186.92a22,22,0,1,1,22-22A22.25,22.25,0,0,1,347.45,186.92Z"/></g></g></g></svg>